# Blender v2.81 (sub 16) OBJ File: 'untitled.blend'
# www.blender.org
mtllib lowpoly-mushroom.mtl
o Plane_Plane.001
v 0.000000 0.695122 0.000000
v 0.000000 0.673950 -0.116446
v 0.000000 0.623372 -0.210545
v 0.000000 0.539860 -0.284647
v 0.000000 0.519864 -0.171729
v 0.000000 0.517512 -0.083512
v 0.000000 0.382245 -0.139971
v 0.000000 0.208164 -0.211721
v 0.000000 0.116418 -0.237598
v 0.000000 0.057607 -0.221131
v 0.000000 0.015263 -0.159967
v 0.000000 -0.000000 0.000000
v 0.000000 0.695122 0.000000
v 0.082340 0.673950 -0.082340
v 0.148878 0.623372 -0.148878
v 0.201276 0.539860 -0.201276
v 0.121431 0.519864 -0.121431
v 0.059052 0.517512 -0.059052
v 0.098975 0.382245 -0.098974
v 0.149709 0.208164 -0.149709
v 0.168007 0.116418 -0.168007
v 0.156363 0.057607 -0.156363
v 0.113114 0.015263 -0.113114
v 0.000000 -0.000000 0.000000
v 0.000000 0.695122 0.000000
v 0.116447 0.673950 0.000000
v 0.210545 0.623372 0.000000
v 0.284647 0.539860 0.000000
v 0.171729 0.519864 0.000000
v 0.083512 0.517512 0.000000
v 0.139971 0.382245 0.000000
v 0.211721 0.208164 0.000000
v 0.237598 0.116418 0.000000
v 0.221131 0.057607 0.000000
v 0.159967 0.015263 0.000000
v -0.000000 0.000000 0.000000
v 0.000000 0.695122 0.000000
v 0.082340 0.673950 0.082340
v 0.148878 0.623372 0.148878
v 0.201276 0.539860 0.201276
v 0.121431 0.519864 0.121431
v 0.059052 0.517512 0.059052
v 0.098974 0.382245 0.098974
v 0.149709 0.208164 0.149709
v 0.168007 0.116418 0.168007
v 0.156363 0.057607 0.156363
v 0.113114 0.015263 0.113114
v -0.000000 0.000000 0.000000
v 0.000000 0.695122 -0.000000
v 0.000000 0.673950 0.116446
v -0.000000 0.623372 0.210545
v -0.000000 0.539860 0.284647
v -0.000000 0.519864 0.171729
v -0.000000 0.517512 0.083512
v -0.000000 0.382245 0.139971
v -0.000000 0.208164 0.211721
v -0.000000 0.116418 0.237598
v -0.000000 0.057607 0.221131
v -0.000000 0.015263 0.159967
v -0.000000 0.000000 -0.000000
v 0.000000 0.695122 -0.000000
v -0.082340 0.673950 0.082340
v -0.148878 0.623372 0.148878
v -0.201276 0.539860 0.201276
v -0.121431 0.519864 0.121431
v -0.059052 0.517512 0.059052
v -0.098974 0.382245 0.098974
v -0.149709 0.208164 0.149709
v -0.168007 0.116418 0.168007
v -0.156363 0.057607 0.156363
v -0.113114 0.015263 0.113114
v -0.000000 0.000000 -0.000000
v 0.000000 0.695122 -0.000000
v -0.116446 0.673950 -0.000000
v -0.210545 0.623372 -0.000000
v -0.284647 0.539860 -0.000000
v -0.171729 0.519864 -0.000000
v -0.083512 0.517512 -0.000000
v -0.139971 0.382245 -0.000000
v -0.211721 0.208164 -0.000000
v -0.237598 0.116418 -0.000000
v -0.221131 0.057607 -0.000000
v -0.159967 0.015263 -0.000000
v 0.000000 -0.000000 -0.000000
v 0.000000 0.695122 -0.000000
v -0.082340 0.673950 -0.082340
v -0.148877 0.623372 -0.148878
v -0.201276 0.539860 -0.201276
v -0.121431 0.519864 -0.121431
v -0.059052 0.517512 -0.059052
v -0.098974 0.382245 -0.098975
v -0.149709 0.208164 -0.149709
v -0.168007 0.116418 -0.168007
v -0.156363 0.057607 -0.156363
v -0.113114 0.015263 -0.113114
v 0.000000 -0.000000 -0.000000
vt 0.240286 0.767699
vt 0.315094 0.779936
vt 0.283595 0.827738
vt 0.237237 0.768592
vt 0.230514 0.843007
vt 0.234383 0.767183
vt 0.180250 0.820722
vt 0.233140 0.764217
vt 0.155541 0.770859
vt 0.234123 0.761090
vt 0.168484 0.715503
vt 0.236942 0.759277
vt 0.214945 0.679780
vt 0.240356 0.759693
vt 0.276372 0.681271
vt 0.242790 0.762276
vt 0.327783 0.724326
vt 0.242993 0.765983
vt 0.385053 0.799114
vt 0.321234 0.883052
vt 0.224640 0.908831
vt 0.133701 0.868090
vt 0.088564 0.778082
vt 0.110780 0.678083
vt 0.192605 0.612635
vt 0.300804 0.611301
vt 0.395057 0.678585
vt 0.456169 0.830502
vt 0.360500 0.946994
vt 0.215980 0.982527
vt 0.080330 0.920189
vt 0.013367 0.784937
vt 0.046965 0.635580
vt 0.168300 0.538665
vt 0.325133 0.536322
vt 0.456169 0.625203
vt 0.656152 0.544124
vt 0.695050 0.627983
vt 0.622742 0.705387
vt 0.536427 0.672608
vt 0.625618 0.810933
vt 0.541126 0.848134
vt 0.701739 0.883994
vt 0.667721 0.969802
vt 0.807211 0.882528
vt 0.843265 0.967485
vt 0.881235 0.807409
vt 0.966565 0.842547
vt 0.881146 0.701963
vt 0.966565 0.667026
vt 0.806980 0.627000
vt 0.843264 0.542065
vt 0.701283 0.625762
vt 0.667554 0.539595
vt 0.724546 0.692944
vt 0.689223 0.730595
vt 0.690568 0.782167
vt 0.727747 0.817913
vt 0.779309 0.817239
vt 0.815527 0.780547
vt 0.815529 0.728999
vt 0.779318 0.692330
vt 0.727794 0.691779
vt 0.262889 0.417539
vt 0.222733 0.317893
vt 0.292727 0.307926
vt 0.308448 0.406625
vt 0.352789 0.308579
vt 0.355609 0.405707
vt 0.407563 0.311999
vt 0.404268 0.410553
vt 0.461363 0.315367
vt 0.455177 0.418303
vt 0.517819 0.317764
vt 0.508936 0.427487
vt 0.580879 0.319575
vt 0.565649 0.438181
vt 0.656235 0.323443
vt 0.624760 0.452473
vt 0.753146 0.338363
vt 0.684393 0.475103
vt 0.202007 0.185444
vt 0.295314 0.208664
vt 0.358461 0.224412
vt 0.410904 0.232811
vt 0.460212 0.235077
vt 0.511212 0.231079
vt 0.569025 0.219187
vt 0.642659 0.195042
vt 0.757943 0.147620
vt 0.219310 0.118972
vt 0.309449 0.171187
vt 0.366719 0.194660
vt 0.414608 0.205711
vt 0.459814 0.208081
vt 0.506237 0.202106
vt 0.557722 0.185423
vt 0.620254 0.150489
vt 0.714769 0.069208
vt 0.247638 0.084584
vt 0.322614 0.150074
vt 0.373572 0.177257
vt 0.417513 0.189644
vt 0.459476 0.192093
vt 0.502380 0.185196
vt 0.548916 0.166431
vt 0.602526 0.127744
vt 0.672988 0.037906
vt 0.299770 0.057486
vt 0.343619 0.125067
vt 0.383511 0.155095
vt 0.421029 0.168742
vt 0.457846 0.171455
vt 0.495288 0.164061
vt 0.534400 0.144226
vt 0.575381 0.104823
vt 0.612478 0.023911
vt 0.438725 0.071389
vt 0.443718 0.070922
vt 0.447833 0.068517
vt 0.450847 0.064814
vt 0.452560 0.060220
vt 0.452728 0.055092
vt 0.451007 0.049870
vt 0.446886 0.045283
vt 0.439773 0.043144
vn -0.0537 -0.9824 0.1786
vn -0.0000 -0.9314 0.3639
vn -0.2573 -0.9314 0.2573
vn -0.1643 -0.9824 0.0883
vn -0.3639 -0.9314 -0.0000
vn -0.1786 -0.9824 -0.0537
vn -0.2573 -0.9314 -0.2573
vn -0.0883 -0.9824 -0.1643
vn 0.0000 -0.9314 -0.3639
vn 0.0537 -0.9824 -0.1786
vn 0.2573 -0.9314 -0.2573
vn 0.1643 -0.9824 -0.0883
vn 0.3639 -0.9314 0.0000
vn 0.1786 -0.9824 0.0537
vn 0.2573 -0.9314 0.2573
vn 0.0883 -0.9824 0.1643
vn -0.0000 -0.7637 0.6455
vn -0.4565 -0.7637 0.4565
vn -0.6455 -0.7637 0.0000
vn -0.4565 -0.7637 -0.4565
vn 0.0000 -0.7637 -0.6455
vn 0.4565 -0.7637 -0.4565
vn 0.6455 -0.7637 0.0000
vn 0.4565 -0.7637 0.4565
vn -0.2959 -0.6340 0.7145
vn -0.7145 -0.6340 0.2959
vn -0.7145 -0.6340 -0.2959
vn -0.2959 -0.6340 -0.7145
vn 0.2959 -0.6340 -0.7145
vn 0.7145 -0.6340 -0.2959
vn 0.7145 -0.6340 0.2959
vn 0.2959 -0.6340 0.7145
vn -0.0000 0.9847 0.1744
vn -0.0000 0.9929 0.1191
vn -0.0842 0.9929 0.0842
vn -0.1233 0.9847 0.1233
vn -0.1191 0.9929 -0.0000
vn -0.1744 0.9847 -0.0000
vn -0.0842 0.9929 -0.0842
vn -0.1233 0.9847 -0.1233
vn 0.0000 0.9929 -0.1191
vn 0.0000 0.9847 -0.1744
vn 0.0842 0.9929 -0.0842
vn 0.1233 0.9847 -0.1233
vn 0.1191 0.9929 0.0000
vn 0.1744 0.9847 0.0000
vn 0.0842 0.9929 0.0842
vn 0.1233 0.9847 0.1233
vn -0.0000 0.9996 0.0267
vn -0.0188 0.9996 0.0188
vn -0.0267 0.9996 -0.0000
vn -0.0188 0.9996 -0.0188
vn 0.0000 0.9996 -0.0267
vn 0.0188 0.9996 -0.0188
vn 0.0267 0.9996 -0.0000
vn 0.0188 0.9996 0.0188
vn -0.3571 -0.3598 0.8620
vn -0.3574 -0.3576 0.8628
vn -0.8620 -0.3598 0.3571
vn -0.8628 -0.3576 0.3574
vn -0.8620 -0.3598 -0.3571
vn -0.8628 -0.3576 -0.3574
vn -0.3571 -0.3598 -0.8620
vn -0.3574 -0.3576 -0.8628
vn 0.3571 -0.3598 -0.8620
vn 0.3574 -0.3576 -0.8628
vn 0.8620 -0.3598 -0.3571
vn 0.8628 -0.3576 -0.3574
vn 0.8620 -0.3598 0.3571
vn 0.8628 -0.3576 0.3574
vn 0.3571 -0.3598 0.8620
vn 0.3574 -0.3576 0.8628
vn -0.3650 -0.3003 0.8812
vn -0.8812 -0.3003 0.3650
vn -0.8812 -0.3003 -0.3650
vn -0.3650 -0.3003 -0.8812
vn 0.3650 -0.3003 -0.8812
vn 0.8812 -0.3003 -0.3650
vn 0.8812 -0.3003 0.3650
vn 0.3650 -0.3003 0.8812
vn -0.3827 -0.0008 0.9239
vn -0.9239 -0.0008 0.3827
vn -0.9239 -0.0008 -0.3827
vn -0.3827 -0.0008 -0.9239
vn 0.3827 -0.0008 -0.9239
vn 0.9239 -0.0008 -0.3827
vn 0.9239 -0.0008 0.3827
vn 0.3827 -0.0008 0.9239
vn -0.3705 0.2504 0.8944
vn -0.8944 0.2504 0.3705
vn -0.8944 0.2504 -0.3705
vn -0.3705 0.2504 -0.8944
vn 0.3705 0.2504 -0.8944
vn 0.8944 0.2504 -0.3705
vn 0.8944 0.2504 0.3705
vn 0.3705 0.2504 0.8944
vn -0.0000 0.8222 0.5692
vn -0.4025 0.8222 0.4025
vn -0.5692 0.8222 -0.0000
vn -0.4025 0.8222 -0.4025
vn 0.0000 0.8222 -0.5692
vn 0.4025 0.8222 -0.4025
vn 0.5692 0.8222 0.0000
vn 0.4025 0.8222 0.4025
vn -0.0000 0.9955 0.0950
vn -0.0292 0.9951 0.0949
vn -0.0878 0.9951 0.0465
vn -0.0672 0.9955 0.0672
vn -0.0949 0.9951 -0.0292
vn -0.0950 0.9955 -0.0000
vn -0.0465 0.9951 -0.0878
vn -0.0672 0.9955 -0.0672
vn 0.0292 0.9951 -0.0949
vn 0.0000 0.9955 -0.0950
vn 0.0878 0.9951 -0.0465
vn 0.0672 0.9955 -0.0672
vn 0.0949 0.9951 0.0292
vn 0.0950 0.9955 0.0000
vn 0.0465 0.9951 0.0878
vn 0.0672 0.9955 0.0672
g Plane_Plane.001_Mushroom
usemtl Mushroom
s 1
f 1/1/1 2/2/2 14/3/3 13/4/4
f 13/4/4 14/3/3 26/5/5 25/6/6
f 25/6/6 26/5/5 38/7/7 37/8/8
f 37/8/8 38/7/7 50/9/9 49/10/10
f 49/10/10 50/9/9 62/11/11 61/12/12
f 61/12/12 62/11/11 74/13/13 73/14/14
f 73/14/14 74/13/13 86/15/15 85/16/16
f 85/16/16 86/15/15 2/17/2 1/18/1
f 2/2/2 3/19/17 15/20/18 14/3/3
f 14/3/3 15/20/18 27/21/19 26/5/5
f 26/5/5 27/21/19 39/22/20 38/7/7
f 38/7/7 39/22/20 51/23/21 50/9/9
f 50/9/9 51/23/21 63/24/22 62/11/11
f 62/11/11 63/24/22 75/25/23 74/13/13
f 74/13/13 75/25/23 87/26/24 86/15/15
f 86/15/15 87/26/24 3/27/17 2/17/2
f 3/19/17 4/28/25 16/29/25 15/20/18
f 15/20/18 16/29/26 28/30/26 27/21/19
f 27/21/19 28/30/27 40/31/27 39/22/20
f 39/22/20 40/31/28 52/32/28 51/23/21
f 51/23/21 52/32/29 64/33/29 63/24/22
f 63/24/22 64/33/30 76/34/30 75/25/23
f 75/25/23 76/34/31 88/35/31 87/26/24
f 87/26/24 88/35/32 4/36/32 3/27/17
f 4/37/33 5/38/34 17/39/35 16/40/36
f 16/40/36 17/39/35 29/41/37 28/42/38
f 28/42/38 29/41/37 41/43/39 40/44/40
f 40/44/40 41/43/39 53/45/41 52/46/42
f 52/46/42 53/45/41 65/47/43 64/48/44
f 64/48/44 65/47/43 77/49/45 76/50/46
f 76/50/46 77/49/45 89/51/47 88/52/48
f 88/52/48 89/51/47 5/53/34 4/54/33
f 5/38/34 6/55/49 18/56/50 17/39/35
f 17/39/35 18/56/50 30/57/51 29/41/37
f 29/41/37 30/57/51 42/58/52 41/43/39
f 41/43/39 42/58/52 54/59/53 53/45/41
f 53/45/41 54/59/53 66/60/54 65/47/43
f 65/47/43 66/60/54 78/61/55 77/49/45
f 77/49/45 78/61/55 90/62/56 89/51/47
f 89/51/47 90/62/56 6/63/49 5/53/34
f 6/64/57 7/65/58 19/66/58 18/67/57
f 18/67/59 19/66/60 31/68/60 30/69/59
f 30/69/61 31/68/62 43/70/62 42/71/61
f 42/71/63 43/70/64 55/72/64 54/73/63
f 54/73/65 55/72/66 67/74/66 66/75/65
f 66/75/67 67/74/68 79/76/68 78/77/67
f 78/77/69 79/76/70 91/78/70 90/79/69
f 90/79/71 91/78/72 7/80/72 6/81/71
f 7/65/58 8/82/73 20/83/73 19/66/58
f 19/66/60 20/83/74 32/84/74 31/68/60
f 31/68/62 32/84/75 44/85/75 43/70/62
f 43/70/64 44/85/76 56/86/76 55/72/64
f 55/72/66 56/86/77 68/87/77 67/74/66
f 67/74/68 68/87/78 80/88/78 79/76/68
f 79/76/70 80/88/79 92/89/79 91/78/70
f 91/78/72 92/89/80 8/90/80 7/80/72
f 8/82/73 9/91/81 21/92/81 20/83/73
f 20/83/74 21/92/82 33/93/82 32/84/74
f 32/84/75 33/93/83 45/94/83 44/85/75
f 44/85/76 45/94/84 57/95/84 56/86/76
f 56/86/77 57/95/85 69/96/85 68/87/77
f 68/87/78 69/96/86 81/97/86 80/88/78
f 80/88/79 81/97/87 93/98/87 92/89/79
f 92/89/80 93/98/88 9/99/88 8/90/80
f 9/91/81 10/100/89 22/101/89 21/92/81
f 21/92/82 22/101/90 34/102/90 33/93/82
f 33/93/83 34/102/91 46/103/91 45/94/83
f 45/94/84 46/103/92 58/104/92 57/95/84
f 57/95/85 58/104/93 70/105/93 69/96/85
f 69/96/86 70/105/94 82/106/94 81/97/86
f 81/97/87 82/106/95 94/107/95 93/98/87
f 93/98/88 94/107/96 10/108/96 9/99/88
f 10/100/97 11/109/97 23/110/98 22/101/98
f 22/101/98 23/110/98 35/111/99 34/102/99
f 34/102/99 35/111/99 47/112/100 46/103/100
f 46/103/100 47/112/100 59/113/101 58/104/101
f 58/104/101 59/113/101 71/114/102 70/105/102
f 70/105/102 71/114/102 83/115/103 82/106/103
f 82/106/103 83/115/103 95/116/104 94/107/104
f 94/107/104 95/116/104 11/117/97 10/108/97
f 11/109/105 12/118/106 24/119/107 23/110/108
f 23/110/108 24/119/107 36/120/109 35/111/110
f 35/111/110 36/120/109 48/121/111 47/112/112
f 47/112/112 48/121/111 60/122/113 59/113/114
f 59/113/114 60/122/113 72/123/115 71/114/116
f 71/114/116 72/123/115 84/124/117 83/115/118
f 83/115/118 84/124/117 96/125/119 95/116/120
f 95/116/120 96/125/119 12/126/106 11/117/105
